<svg viewBox="0 0 800 100" xmlns="http://www.w3.org/2000/svg">
	<!-- 0 -->
	<path class="s0" d="M 0 0 m 100 50 a 50 50 0 1 1 -100 0 a 50 50 0 1 1 100 0 Z " fill="#332288"/>
	<!-- 1 -->
	<path class="s0" d="M 100 0 m 100 50 a 50 50 0 1 1 -100 0 a 50 50 0 1 1 100 0 Z " fill="#117733"/>
	<!-- 2 -->
	<path class="s0" d="M 200 0 m 100 50 a 50 50 0 1 1 -100 0 a 50 50 0 1 1 100 0 Z " fill="#44AA99"/>
	<!-- 3 -->
	<path class="s0" d="M 300 0 m 100 50 a 50 50 0 1 1 -100 0 a 50 50 0 1 1 100 0 Z " fill="#88CCEE"/>
	<!-- 4 -->
	<path class="s0" d="M 400 0 m 100 50 a 50 50 0 1 1 -100 0 a 50 50 0 1 1 100 0 Z " fill="#DDCC77"/>
	<!-- 5 -->
	<path class="s0" d="M 500 0 m 100 50 a 50 50 0 1 1 -100 0 a 50 50 0 1 1 100 0 Z " fill="#CC6677"/>
	<!-- 6 -->
	<path class="s0" d="M 600 0 m 100 50 a 50 50 0 1 1 -100 0 a 50 50 0 1 1 100 0 Z " fill="#AA4499"/>
	<!-- 7 -->
	<path class="s0" d="M 700 0 m 100 50 a 50 50 0 1 1 -100 0 a 50 50 0 1 1 100 0 Z " fill="#882255"/>
</svg>