<svg viewBox="0 0 403 201" xmlns="http://www.w3.org/2000/svg"><!-- Ryder Cryptoglyphs version 1 --><path d="M 0 0 m 0 100 a 100 100 0 0 1 100 -100 l 0 100 Z m 100 -80 a 80 80 0 0 0 -80 80 l 80 0 Z v 80 h -80 v -20 h 60 v -60 Z" fill="#882255"></path><path d="M 101 0 m 100 50 a 50 50 0 1 1 -100 0 a 50 50 0 1 1 100 0 Z" fill="#882255"></path><path d="M 202 0 a 50 50 0 0 1 0 100 Z m 0 80 a 30 30 0 0 0 0 -60 Z v -60 h 20 v 60 h -20 Z m 100 20 a 50 50 0 0 1 0 -100 Z m 0 -80 a 30 30 0 0 0 0 60 Z v 60 h -20 v -60 Z" fill="#44AA99"></path><path d="M 303 0 m 100 50 a 50 50 0 1 1 -100 0 a 50 50 0 1 1 100 0 m -20 0 a 30 30 0 0 0 -60 0 a 30 30 0 0 0 60 0 Z" fill="#DDCC77"></path><path d="M 0 101 a 100 100 0 0 0 100 100 l 0 -100 Z m 100 80 a 80 80 0 0 1 -80 -80 l 80 0 Z v -80 h -80 v 20 h 60 v 60 Z" fill="#DDCC77"></path><path d="M 101 101 m 0 100 a 100 100 0 0 1 100 -100 l 0 100 Z" fill="#88CCEE"></path><path d="M 202 101 m 100 50 a 50 50 0 1 1 -100 0 a 50 50 0 1 1 100 0 m -20 0 a 30 30 0 0 0 -60 0 a 30 30 0 0 0 60 0 Z" fill="#88CCEE"></path><path d="M 303 101 a 50 50 0 0 0 100 0 Z m 80 0 a 30 30 0 0 1 -60 0 Z h -60 v 20 h 60 Z m -80 100 a 50 50 0 0 1 100 0 Z m 80 0 a 30 30 0 0 0 -60 0 Z h -60 v -20 h 60 Z" fill="#117733"></path></svg>