<svg viewBox="0 0 1600 100" xmlns="http://www.w3.org/2000/svg">
	<!-- Path width = 20 -->
	<!-- 0 -->
	<path class="s0" d="M 0 0 m 100 50 a 50 50 0 1 1 -100 0 a 50 50 0 1 1 100 0 Z " fill="black"/>
	<!-- 1 -->
	<path class="s1" d="M 100 0 m 100 50 a 50 50 0 1 1 -100 0 a 50 50 0 1 1 100 0 m -20 0 a 30 30 0 0 0 -60 0 a 30 30 0 0 0 60 0 Z " fill="black"/>
	<!-- 2 -->
	<path class="s2" d="M 200 0 a 50 50 0 0 1 0 100 Z m 100 100 a 50 50 0 0 1 0 -100 Z" fill="black"/>
	<!-- 3 -->
	<path class="s3" d="M 300 0 a 50 50 0 0 1 0 100 Z m 0 80 a 30 30 0 0 0 0 -60 Z v -60 h 20 v 60 h -20 Z m 100 20 a 50 50 0 0 1 0 -100 Z m 0 -80 a 30 30 0 0 0 0 60 Z v 60 h -20 v -60 Z" fill="black"/>
	<!-- 4 -->
	<path class="s4" d="M 400 0 a 50 50 0 0 0 100 0 Z m 100 100 a 50 50 0 0 0 -100 0 Z" fill="black"/>
	<!-- 5 -->
	<path class="s5" d="M 500 0 a 50 50 0 0 0 100 0 Z m 80 0 a 30 30 0 0 1 -60 0 Z h -60 v 20 h 60 Z m -80 100 a 50 50 0 0 1 100 0 Z m 80 0 a 30 30 0 0 0 -60 0 Z h -60 v -20 h 60 Z" fill="black"/>
	<!-- 6 -->
	<path class="s6" d="M 600 0 a 100 100 0 0 1 100 100 l -100 0 Z" fill="black"/>
	<!-- 7 -->
	<path class="s7" d="M 700 0 a 100 100 0 0 1 100 100 l -100 0 Z m 80 100 a 80 80 0 0 0 -80 -80 l 0 80 Z h -80 v -80 h 20 v 60 h 60 Z" fill="black"/>
	<!-- 8 -->
	<path class="s8" d="M 800 0 m 0 100 a 100 100 0 0 1 100 -100 l 0 100 Z" fill="black"/>
	<!-- 9 -->
	<path class="s9" d="M 900 0 m 0 100 a 100 100 0 0 1 100 -100 l 0 100 Z m 100 -80 a 80 80 0 0 0 -80 80 l 80 0 Z v 80 h -80 v -20 h 60 v -60 Z" fill="black"/>
	<!-- 10 -->
	<path class="s10" d="M 1000 0 m 100 0 a 100 100 0 0 1 -100 100 l 0 -100 Z" fill="black"/>
	<!-- 11 -->
	<path class="s11" d="M 1100 0 m 100 0 a 100 100 0 0 1 -100 100 l 0 -100 Z m -100 80 a 80 80 0 0 0 80 -80 l -80 0 Z v 20 m 0 -20 v -80 h 80 v 20 h -60 v 60 Z" fill="black"/>
	<!-- 12 -->
	<path class="s12" d="M 1200 0 a 100 100 0 0 0 100 100 l 0 -100 Z" fill="black"/>
	<!-- 13 -->
	<path class="s13" d="M 1300 0 a 100 100 0 0 0 100 100 l 0 -100 Z m 100 80 a 80 80 0 0 1 -80 -80 l 80 0 Z v -80 h -80 v 20 h 60 v 60 Z" fill="black"/>
	<!-- 14 -->
	<path class="s14" d="M 1400 0 h 100 v 100 h -100 Z" fill="black"/>
	<!-- 15 -->
	<path class="s15" d="M 1500 0 h 100 v 100 h -100 Z m 20 20 v 60 h 60 v -60 Z" fill="black"/>
</svg>